General

Complete name                    : 13.2010{PSP.IPOD.ZUNE} DvDRiP.aaaevilacharya.m4v
Format                           : MPEG-4
Format profile                   : Base Media / Version 2
Codec ID                         : mp42
File size                        : 301 MiB
Duration                         : 1h 33mn
Overall bit rate                 : 451 Kbps
Encoded date                     : UTC 2010-12-15 15:41:56
Tagged date                      : UTC 2010-12-15 17:02:23


Video
ID                               : 1
Format                           : AVC
Format/Info                      : Advanced Video Codec
Format profile                   : Baseline@L3.0
Format settings, CABAC           : No
Format settings, ReFrames        : 1 frame
Codec ID                         : avc1
Codec ID/Info                    : Advanced Video Coding
Duration                         : 1h 33mn
Bit rate mode                    : Variable
Bit rate                         : 334 Kbps
Width                            : 480 pixels
Height                           : 208 pixels
Display aspect ratio             : 2.35:1
Frame rate mode                  : Constant
Frame rate                       : 25.000 fps
Color space                      : YUV
Chroma subsampling               : 4:2:0
Bit depth                        : 8 bits
Scan type                        : Progressive
Bits/(Pixel*Frame)               : 0.134
Stream size                      : 226 MiB (75%)
Writing library                  : x264 core 79


Audio
ID                               : 2
Format                           : AAC
Format/Info                      : Advanced Audio Codec
Format version                   : Version 4
Format profile                   : LC
Format settings, SBR             : No
Codec ID                         : 40
Duration                         : 1h 33mn
Bit rate mode                    : Variable
Bit rate                         : 110 Kbps
Maximum bit rate                 : 167 Kbps
Channel(s)                       : 2 channels
Channel positions                : Front: L R
Sampling rate                    : 44.1 KHz
Stream size                      : 73.5 MiB (24%)
Encoded date                     : UTC 2010-12-15 15:41:56
Tagged date                      : UTC 2010-12-15 17:02:23

Text
ID                               : 3
Format                           : Apple text
Codec ID                         : text
Duration                         : 1h 33mn
Bit rate                         : 0
Stream size                      : 14.0 Bytes (0%)
Encoded date                     : UTC 2010-12-15 15:41:56
Tagged date                      : UTC 2010-12-15 17:02:23

SCREENSHOTS
 
http://img31.imageshack.us/img31/9937/13movieposter.jpg 
http://img819.imageshack.us/img819/1641/132010pspipodzunedvdrip.jpg 
http://img27.imageshack.us/img27/1641/132010pspipodzunedvdrip.jpg 
http://img84.imageshack.us/img84/1641/132010pspipodzunedvdrip.jpg 
http://img443.imageshack.us/img443/1641/132010pspipodzunedvdrip.jpg 
http://img87.imageshack.us/img87/1641/132010pspipodzunedvdrip.jpg 
http://img834.imageshack.us/img834/1641/132010pspipodzunedvdrip.jpg 
http://img816.imageshack.us/img816/1641/132010pspipodzunedvdrip.jpg
